<?xml version="1.0" encoding="UTF-8" standalone="no"?>
<svg
   xmlns:dc="http://purl.org/dc/elements/1.1/"
   xmlns:cc="http://creativecommons.org/ns#"
   xmlns:rdf="http://www.w3.org/1999/02/22-rdf-syntax-ns#"
   xmlns:svg="http://www.w3.org/2000/svg"
   xmlns="http://www.w3.org/2000/svg"
   xmlns:sodipodi="http://sodipodi.sourceforge.net/DTD/sodipodi-0.dtd"
   xmlns:inkscape="http://www.inkscape.org/namespaces/inkscape"
   inkscape:version="1.0 (4035a4fb49, 2020-05-01)"
   sodipodi:docname="Z.svg"
   id="svg8"
   version="1.1"
   viewBox="0 0 111.125 125.15877"
   height="473.04099"
   width="420">
  <defs
     id="defs2" />
  <sodipodi:namedview
     inkscape:window-maximized="1"
     inkscape:window-y="-9"
     inkscape:window-x="-9"
     inkscape:window-height="991"
     inkscape:window-width="1920"
     units="px"
     showgrid="false"
     inkscape:document-rotation="0"
     inkscape:current-layer="layer1"
     inkscape:document-units="px"
     inkscape:cy="233.92043"
     inkscape:cx="269.57621"
     inkscape:zoom="0.98994946"
     inkscape:pageshadow="2"
     inkscape:pageopacity="0.0"
     borderopacity="1.0"
     bordercolor="#666666"
     pagecolor="#ffffff"
     id="base" />
  <metadata
     id="metadata5">
    <rdf:RDF>
      <cc:Work
         rdf:about="">
        <dc:format>image/svg+xml</dc:format>
        <dc:type
           rdf:resource="http://purl.org/dc/dcmitype/StillImage" />
        <dc:title></dc:title>
      </cc:Work>
    </rdf:RDF>
  </metadata>
  <g
     id="layer1"
     inkscape:groupmode="layer"
     inkscape:label="Layer 1">
    <g
       id="use852"
       style="fill:#000000;fill-opacity:1;stroke-width:0.00509218"
       transform="matrix(18.329897,0,0,18.329897,-5.1552835,125.15883)">
      <path
         style="stroke:none;stroke-width:0.00509218"
         d="m 5.9375,-6.46875 c 0.09375,-0.125 0.09375,-0.15625 0.09375,-0.1875 0,-0.171875 -0.15625,-0.171875 -0.328125,-0.171875 h -4.5625 c -0.328125,0 -0.328125,0.03125 -0.359375,0.28125 L 0.640625,-5.1875 0.625,-5.0625 c 0,0.140625 0.109375,0.1875 0.171875,0.1875 0.09375,0 0.15625,-0.0625 0.171875,-0.15625 0.03125,-0.234375 0.125,-0.671875 0.734375,-1.046875 0.5625,-0.375 1.265625,-0.40625 1.609375,-0.40625 h 0.796875 l -3.734375,6.125 c -0.09375,0.125 -0.09375,0.15625 -0.09375,0.1875 C 0.28125,0 0.4375,0 0.625,0 H 5.734375 C 6.03125,0 6.03125,-0.015625 6.078125,-0.28125 L 6.34375,-2.25 C 6.34375,-2.359375 6.25,-2.421875 6.171875,-2.421875 6.015625,-2.421875 6,-2.328125 5.96875,-2.125 5.796875,-1.3125 5.03125,-0.34375 3.609375,-0.34375 H 2.1875 Z M 1.125,-6.484375 h 0.53125 v 0.015625 c -0.265625,0.15625 -0.453125,0.328125 -0.578125,0.4375 z m 3.40625,0 H 5.546875 L 1.78125,-0.34375 H 0.765625 Z m 0.515625,6.125 c 0.28125,-0.15625 0.546875,-0.375 0.78125,-0.65625 -0.03125,0.203125 -0.046875,0.3125 -0.09375,0.671875 h -0.6875 z m 0,0"
         id="path1458" />
    </g>
  </g>
</svg>
